# xmcd
#
# Track frame offsets:
#	150
#	7663
#	17487
#	29774
#	46121
#	56304
#	76239
#	86234
#	106034
#	124143
#
# Disc length: 1825 seconds
#
# Revision: 1
# Processed by: cddbd v1.5.1PL2 Copyright (c) Steve Scherf et al.
# Submitted via: audiograbber 1.83.01
#
DISCID=67071f0a
DTITLE=Perrys - Hits and Hymns Volume 2
DYEAR=2002
DGENRE=Southern Gospel
TTITLE0=Holy Manna
TTITLE1=We Shall Reign
TTITLE2=I've Never Been Sorry
TTITLE3=The Love Of God
TTITLE4=When Morning Sweeps The Eastern Sky
TTITLE5=Wait'll You See My Brand New Home
TTITLE6=Oh What A Day
TTITLE7=Look What I'm Trading For A Mansion
TTITLE8=By Faith I Can Touch Him Now
TTITLE9=Not Even A Stone
EXTD=
EXTT0=
EXTT1=
EXTT2=
EXTT3=
EXTT4=
EXTT5=
EXTT6=
EXTT7=
EXTT8=
EXTT9=
PLAYORDER=
